<svg xmlns="http://www.w3.org/2000/svg" viewBox="0 0 64 64" role="img" aria-labelledby="title">
  <title>Adobe XD</title>
  <rect width="64" height="64" rx="14" fill="#470137"/>
  <rect x="6" y="6" width="52" height="52" rx="10" fill="none" stroke="#FF61F6" stroke-width="3"/>
  <path fill="#FF61F6" d="M12.5 44 21 30.7 13 18h8.2l4.2 7.4 4.3-7.4h8L29.6 30.5 38.2 44h-8.4l-4.7-8.2-4.8 8.2h-7.8ZM49 44.5c-5.3 0-9-3.9-9-9.8 0-6 3.7-9.9 8.8-9.9 2.1 0 3.5.6 4.5 1.6V17h6.7v27h-6.5v-2.2c-1.1 1.7-2.7 2.7-4.5 2.7Zm1.9-5.8c1.7 0 2.9-1.4 2.9-4s-1.2-4-2.9-4-2.9 1.4-2.9 4 1.2 4 2.9 4Z"/>
</svg>
