<svg xmlns="http://www.w3.org/2000/svg" viewBox="0 0 64 64" role="img" aria-labelledby="title">
  <title>After Effects</title>
  <rect width="64" height="64" rx="14" fill="#00005B"/>
  <rect x="6" y="6" width="52" height="52" rx="10" fill="none" stroke="#9999FF" stroke-width="3"/>
  <path fill="#9999FF" d="M13.5 44 22 18h8.7L39.2 44h-7.5l-1.4-5h-8.1l-1.4 5h-7.3Zm10.2-10.8h5l-2.5-9-2.5 9ZM49.3 44.5c-6.2 0-10-3.7-10-9.8 0-5.8 3.8-9.9 9.3-9.9 5.8 0 9 4 9 9.5 0 .8-.1 1.7-.2 2.3H45.8c.5 1.9 1.9 2.8 4 2.8 1.7 0 3.6-.5 5.4-1.5l1.7 4.6c-2 1.3-4.6 2-7.6 2Zm-3.6-11.9h5.9c-.2-1.8-1.2-2.9-2.9-2.9-1.6 0-2.7 1-3 2.9Z"/>
</svg>
