<svg xmlns="http://www.w3.org/2000/svg" viewBox="0 0 64 64" role="img" aria-labelledby="title">
  <title>Premiere Pro</title>
  <rect width="64" height="64" rx="14" fill="#00005B"/>
  <rect x="6" y="6" width="52" height="52" rx="10" fill="none" stroke="#9999FF" stroke-width="3"/>
  <path fill="#9999FF" d="M18 44V18h13.4c5.8 0 9.5 3.5 9.5 8.8 0 5.6-4 9-9.8 9h-5.6V44H18Zm7.5-14.3h4.7c2.1 0 3.4-1.1 3.4-2.9 0-1.9-1.3-2.9-3.4-2.9h-4.7v5.8ZM43.3 44V25.3h6.6v3.1c1-2.2 2.9-3.5 5.2-3.4v6.7h-1.7c-2.2 0-3.5 1.1-3.5 4.1V44h-6.6Z"/>
</svg>
